# xmcd
#
# Track frame offsets:
#	182
#	17837
#	28342
#	46587
#	50685
#	64372
#	75830
#	91572
#	109007
#	126210
#	147710
#	162617
#	177785
#	191952
#	212247
#	246337
#	273365
#	275452
#	275797
#	276147
#	276492
#	276842
#	277192
#	277540
#	277885
#	278290
#	278640
#	278990
#	279335
#	279685
#	280032
#	280380
#	280730
#	281080
#	281425
#	281777
#	282115
#	282467
#	282815
#	283160
#	283510
#	283857
#	284207
#	284555
#	284905
#	285250
#	285600
#	285950
#	286295
#	286697
#	287047
#	287482
#	287830
#	288180
#	288515
#	288870
#	289220
#	289555
#	289905
#	290252
#	290555
#	290962
#	291297
#	291642
#	291987
#	292335
#	292687
#	293035
#	293387
#
# Disc length: 3927 seconds
#
# Revision: 0
# Processed by: cddbd v1.5.2PL0 Copyright (c) Steve Scherf et al.
# Submitted via: audiograbber 1.83.01
#
DISCID=ed0f5545
DTITLE=Dum Dum Boys - X-Perimental Zebra Phonic
DYEAR=1995
DGENRE=Garage
TTITLE0=hypnovista
TTITLE1=Underground kingdown
TTITLE2=Color your blood red
TTITLE3=Transreverberation 1
TTITLE4=Can't make up my mind
TTITLE5=Fuzzbox baby
TTITLE6=On the burning sand
TTITLE7=In a dream
TTITLE8=Summertime (Gershwin)
TTITLE9=Down
TTITLE10=Sonic spectra sound
TTITLE11=Angel on my shoulder
TTITLE12=Transreverberation 2
TTITLE13=Morning dew
TTITLE14=Nothing means nothing
TTITLE15=My love for you is petrified (jack starr)
TTITLE16=Cool jazz
TTITLE17=18
TTITLE18=19
TTITLE19=20
TTITLE20=21
TTITLE21=22
TTITLE22=23
TTITLE23=24
TTITLE24=25
TTITLE25=26
TTITLE26=27
TTITLE27=28
TTITLE28=29
TTITLE29=30
TTITLE30=31
TTITLE31=32
TTITLE32=33
TTITLE33=34
TTITLE34=35
TTITLE35=36
TTITLE36=37
TTITLE37=38
TTITLE38=39
TTITLE39=40
TTITLE40=41
TTITLE41=42
TTITLE42=43
TTITLE43=44
TTITLE44=45
TTITLE45=46
TTITLE46=47
TTITLE47=48
TTITLE48=49
TTITLE49=50
TTITLE50=51
TTITLE51=52
TTITLE52=53
TTITLE53=54
TTITLE54=55
TTITLE55=56
TTITLE56=57
TTITLE57=58
TTITLE58=59
TTITLE59=60
TTITLE60=61
TTITLE61=62
TTITLE62=63
TTITLE63=64
TTITLE64=65
TTITLE65=66
TTITLE66=67
TTITLE67=68
TTITLE68=69
EXTD=
EXTT0=
EXTT1=
EXTT2=
EXTT3=
EXTT4=
EXTT5=
EXTT6=
EXTT7=
EXTT8=
EXTT9=
EXTT10=
EXTT11=
EXTT12=
EXTT13=
EXTT14=
EXTT15=
EXTT16=
EXTT17=
EXTT18=
EXTT19=
EXTT20=
EXTT21=
EXTT22=
EXTT23=
EXTT24=
EXTT25=
EXTT26=
EXTT27=
EXTT28=
EXTT29=
EXTT30=
EXTT31=
EXTT32=
EXTT33=
EXTT34=
EXTT35=
EXTT36=
EXTT37=
EXTT38=
EXTT39=
EXTT40=
EXTT41=
EXTT42=
EXTT43=
EXTT44=
EXTT45=
EXTT46=
EXTT47=
EXTT48=
EXTT49=
EXTT50=
EXTT51=
EXTT52=
EXTT53=
EXTT54=
EXTT55=
EXTT56=
EXTT57=
EXTT58=
EXTT59=
EXTT60=
EXTT61=
EXTT62=
EXTT63=
EXTT64=
EXTT65=
EXTT66=
EXTT67=
EXTT68=
PLAYORDER=
